<svg xmlns="http://www.w3.org/2000/svg" viewBox="0 0 80 92.5" fill="none" x="0px" y="0px"><path fill-rule="evenodd" clip-rule="evenodd" d="M18 0C19.1046 0 20 0.8954 20 2V12C20 13.1046 19.1046 14 18 14H11V17H14C14.5523 17 15 17.4477 15 18V19H5V18C5 17.4477 5.4477 17 6 17H9V14H2C0.8954 14 0 13.1046 0 12V2C0 0.8954 0.8954 0 2 0H18ZM2 2H18V12H2V2Z" fill="black"/><path fill-rule="evenodd" clip-rule="evenodd" d="M62 57C53.1634 57 46 49.8366 46 41C46 32.1634 53.1634 25 62 25C70.8366 25 78 32.1634 78 41C78 49.8366 70.8366 57 62 57ZM62 59C52.0589 59 44 50.9411 44 41C44 31.0589 52.0589 23 62 23C71.9411 23 80 31.0589 80 41C80 50.9411 71.9411 59 62 59Z" fill="black"/><path fill-rule="evenodd" clip-rule="evenodd" d="M10 52C5.5817 52 2 48.4183 2 44C2 39.5817 5.5817 36 10 36C14.4183 36 18 39.5817 18 44C18 48.4183 14.4183 52 10 52ZM10 54C4.4772 54 0 49.5228 0 44C0 38.4772 4.4772 34 10 34C15.5228 34 20 38.4772 20 44C20 49.5228 15.5228 54 10 54Z" fill="black"/><path fill-rule="evenodd" clip-rule="evenodd" d="M63 10C61.3431 10 60 8.6569 60 7C60 5.3431 61.3431 4 63 4C64.6569 4 66 5.3431 66 7C66 8.6569 64.6569 10 63 10ZM63 12C60.2386 12 58 9.7614 58 7C58 4.2386 60.2386 2 63 2C65.7614 2 68 4.2386 68 7C68 9.7614 65.7614 12 63 12Z" fill="black"/><path fill-rule="evenodd" clip-rule="evenodd" d="M25 23C23.3431 23 22 21.6569 22 20C22 18.3431 23.3431 17 25 17C26.6569 17 28 18.3431 28 20C28 21.6569 26.6569 23 25 23ZM25 25C22.2386 25 20 22.7614 20 20C20 17.2386 22.2386 15 25 15C27.7614 15 30 17.2386 30 20C30 22.7614 27.7614 25 25 25Z" fill="black"/><path fill-rule="evenodd" clip-rule="evenodd" d="M39 72C37.3431 72 36 70.6569 36 69C36 67.3431 37.3431 66 39 66C40.6569 66 42 67.3431 42 69C42 70.6569 40.6569 72 39 72ZM39 74C36.2386 74 34 71.7614 34 69C34 66.2386 36.2386 64 39 64C41.7614 64 44 66.2386 44 69C44 71.7614 41.7614 74 39 74Z" fill="black"/><path d="M11 21H9V35H11V21Z" fill="black"/><path d="M24 24.1476L22.362 23L13.5241 35.6144L15.1621 36.762L24 24.1476Z" fill="black"/><path d="M29.1202 22L28.1202 23.7321L47 34.6323L48 32.9002L29.1202 22Z" fill="black"/><path d="M18.5461 44.3778L18.7263 46.3697L45 43.9919L44.8198 42L18.5461 44.3778Z" fill="black"/><path d="M28.5561 18.109L29.2813 19.9729L59.5473 8.19831L58.8222 6.33441L28.5561 18.109Z" fill="black"/><path d="M60.9588 24.0677L62.9524 24.2276L64 11.1598L62.0064 11L60.9588 24.0677Z" fill="black"/><path d="M40.9733 65.5948L42.5585 66.8143L51.8159 54.7815L50.2307 53.562L40.9733 65.5948Z" fill="black"/><path d="M35.2554 68.2943L36.5119 66.7382L16.1328 50.2817L14.8763 51.8377L35.2554 68.2943Z" fill="black"/><path d="M62 43.1053C63.188 43.1053 64.376 43.5965 65.1447 44.5088C65.8435 45.3509 67.1014 44.2281 66.4026 43.386C65.2844 42.1228 63.6772 41.4211 62 41.4211C60.3228 41.4211 58.7156 42.1228 57.5974 43.386C56.8986 44.2281 58.1565 45.3509 58.8553 44.5088C59.624 43.5965 60.812 43.1053 62 43.1053ZM62 49C62.9085 49 63.6772 48.2281 63.6772 47.3158C63.6772 46.4035 62.9085 45.6316 62 45.6316C61.0915 45.6316 60.3228 46.4035 60.3228 47.3158C60.3228 48.2281 61.0915 49 62 49ZM62 38.8947C64.2362 38.8947 66.2628 39.6667 67.8701 41.2807C68.5689 41.9825 69.8966 40.9298 69.0581 40.0877C67.1712 38.193 64.6555 37.2105 62 37.2105C59.3445 37.2105 56.8287 38.193 54.9419 40.0877C54.1034 40.9298 55.4311 41.9825 56.1299 41.2807C57.7372 39.6667 59.7638 38.8947 62 38.8947ZM62 34.6842C65.2146 34.6842 68.2195 35.8772 70.5256 38.0526C71.3642 38.8246 72.5521 37.6316 71.7136 36.8596C68.9882 34.3333 65.6339 33 62 33C58.3661 33 55.0118 34.3333 52.2864 36.8596C51.4479 37.6316 52.6358 38.8246 53.4744 38.0526C55.7805 35.8772 58.7854 34.6842 62 34.6842Z" fill="black"/><text x="0" y="89" fill="#000000" font-size="5px" font-weight="bold" font-family="'Helvetica Neue', Helvetica, Arial-Unicode, Arial, Sans-serif">Created by Alla Zaleuska</text><text x="0" y="94" fill="#000000" font-size="5px" font-weight="bold" font-family="'Helvetica Neue', Helvetica, Arial-Unicode, Arial, Sans-serif">from the Noun Project</text></svg>